<svg id="Camada_1" data-name="Camada 1" xmlns="http://www.w3.org/2000/svg" viewBox="0 0 200 200"><defs><style>.cls-1{fill:#fff;}.cls-2{fill:#18afb4;}</style></defs><path class="cls-1" d="M163.2,185.25a2.87,2.87,0,0,0,1.35-1.72,2.83,2.83,0,0,0-.26-2.17h0L144.45,146a2.85,2.85,0,0,0-1.71-1.35,2.88,2.88,0,0,0-2.17.26l-3.13,1.75-3.1-5.53.62-.43a36,36,0,1,0-6.28,3.52l.68-.3,3.11,5.53-3.12,1.76a2.84,2.84,0,0,0-1.09,3.88l19.84,35.35a2.78,2.78,0,0,0,1.71,1.35,2.82,2.82,0,0,0,2.17-.26Zm-34.07-47.6h0A30.16,30.16,0,1,1,140.65,96.6a30.2,30.2,0,0,1-11.55,41.06m5.5,17.14,6.24-3.5,17,30.38-6.24,3.5Z"/><path class="cls-1" d="M141.16,34.12l-1.39.92-.12-.14L114.81,10.07l.89-1.4-1,1.29-.49-.23.32-1.64L114,9.68l-.19,0H37.21a1.87,1.87,0,0,0-1.87,1.86V139.56a1.87,1.87,0,0,0,1.87,1.87H76.45a1.87,1.87,0,0,0,0-3.74H39.08V13.39h72.67V36.23a1.88,1.88,0,0,0,1.87,1.87h22.84V73.66a1.87,1.87,0,1,0,3.74,0V36.23a1.28,1.28,0,0,0,0-.19l-.23-.72-.08-.14Zm-25.67.24V16l18.33,18.33Z"/><path class="cls-1" d="M54,32.55H98.92a3.53,3.53,0,1,0,0-7.06H54a3.53,3.53,0,0,0,0,7.06"/><path class="cls-1" d="M125.1,52.28a3.53,3.53,0,0,0-3.53-3.53H54a3.53,3.53,0,1,0,0,7.06h67.59a3.53,3.53,0,0,0,3.53-3.53"/><path class="cls-1" d="M91.3,75.54A3.53,3.53,0,0,0,87.77,72H54a3.53,3.53,0,0,0,0,7.06H87.77a3.53,3.53,0,0,0,3.53-3.53"/><path class="cls-1" d="M68.49,95.27H54a3.53,3.53,0,1,0,0,7.06H68.49a3.53,3.53,0,0,0,0-7.06"/><path class="cls-1" d="M68.49,118.53H54a3.53,3.53,0,1,0,0,7.06H68.49a3.53,3.53,0,1,0,0-7.06"/><polygon class="cls-2" points="115.07 118.97 110.67 126.46 100.37 126.46 109.86 111.6 99.97 97.63 110.67 97.63 115.76 104.84 120 97.63 130.3 97.63 120.98 112.21 131.07 126.46 120.36 126.46 115.07 118.97"/></svg>