<svg id="Camada_1" data-name="Camada 1" xmlns="http://www.w3.org/2000/svg" viewBox="0 0 200 200"><defs><style>.cls-1{fill:#18afb4;}.cls-2{fill:none;stroke:#fff;stroke-linecap:round;stroke-linejoin:round;stroke-width:5.82px;}</style></defs><path class="cls-1" d="M128.61,101.85A29.15,29.15,0,1,1,99.46,72.7a29.15,29.15,0,0,1,29.15,29.15"/><circle class="cls-2" cx="99.46" cy="99.21" r="95.48" transform="translate(-24.96 164.42) rotate(-72.59)"/><line class="cls-2" x1="99.46" y1="22.51" x2="99.46" y2="40.13"/><line class="cls-2" x1="22.76" y1="99.21" x2="40.38" y2="99.21"/><line class="cls-2" x1="99.46" y1="175.9" x2="99.46" y2="158.28"/><line class="cls-2" x1="176.15" y1="99.2" x2="158.54" y2="99.21"/><line class="cls-2" x1="61.11" y1="32.79" x2="65.56" y2="40.49"/><line class="cls-2" x1="33.04" y1="60.86" x2="40.74" y2="65.31"/><line class="cls-2" x1="40.74" y1="133.11" x2="33.04" y2="137.56"/><line class="cls-2" x1="65.56" y1="157.92" x2="61.11" y2="165.63"/><line class="cls-2" x1="133.36" y1="157.92" x2="137.81" y2="165.62"/><line class="cls-2" x1="158.18" y1="133.11" x2="165.88" y2="137.55"/><line class="cls-2" x1="165.88" y1="60.86" x2="158.17" y2="65.31"/><line class="cls-2" x1="133.36" y1="40.49" x2="137.8" y2="32.79"/><line class="cls-2" x1="67.14" y1="66.89" x2="108.54" y2="108.29"/><line class="cls-2" x1="146.25" y1="54.47" x2="89.24" y2="108.98"/></svg>