<svg id="Camada_1" data-name="Camada 1" xmlns="http://www.w3.org/2000/svg" viewBox="0 0 200 200"><defs><style>.cls-1,.cls-2{fill:none;stroke-width:2.91px;}.cls-1{stroke:#18afb4;stroke-miterlimit:10;}.cls-2{stroke:#fff;stroke-linecap:round;stroke-linejoin:round;}.cls-3{fill:#fff;}</style></defs><path class="cls-1" d="M65.29,73.9c-5.94,4.9-3.07,18.78,10.78,10.41,0,0,16.92-8.48,26.8-14.09,2.16-1.22,3.6-.81,5.4,1.23,2,1.43,46.77,51.45,46.77,51.45s13.8-10.49,19.2-21.51c0,0-12.41-23.33-24.24-46.48-3.43,1.94-6.35,3.78-10.29,2.67s-7.44-4.35-11.12-6.49c-4.2-2.43-7.75-4.64-12.42-5.31-6.92-1-12.38,2.11-18.34,5.54C91.05,55.2,84.47,59.58,78,64.15Q71.51,68.77,65.29,73.9Z"/><path class="cls-2" d="M74,151.8a8.32,8.32,0,0,1,1-10.67l14.21-12.94a6.15,6.15,0,0,1,9.42.9,8.31,8.31,0,0,1-1,10.68L83.41,152.7A6.16,6.16,0,0,1,74,151.8Z"/><path class="cls-2" d="M60.87,139.89a8.31,8.31,0,0,1,1-10.68L73.07,119a6.15,6.15,0,0,1,9.42.9,8.33,8.33,0,0,1-1,10.68l-11.21,10.2A6.16,6.16,0,0,1,60.87,139.89Z"/><path class="cls-2" d="M45,130.15a8.28,8.28,0,0,1,1.51-10.6l2.51-2a6.18,6.18,0,0,1,9.36,1.49l.16.19a8.06,8.06,0,0,1-1.66,10.41l-2.51,1.95A6.18,6.18,0,0,1,45,130.15Z"/><path class="cls-1" d="M195.38,90.88a3.72,3.72,0,0,1-1.23,5.1l-10.3,5.44A3.74,3.74,0,0,1,179,99.48L154.49,52.17a3.72,3.72,0,0,1,1.23-5.1L166,41.64a3.73,3.73,0,0,1,4.88,1.94Z"/><path class="cls-2" d="M20.82,99c-.76,2-2.73,3.2-4.39,2.58L6,98c-1.66-.63-2.38-2.8-1.6-4.84L23.19,43.3c.77-2,2.74-3.2,4.4-2.58L38,44.34c1.65.62,2.37,2.79,1.6,4.84Z"/><path class="cls-3" d="M154.48,129l0,0a5.77,5.77,0,0,1-1.39,3.06,6.69,6.69,0,0,1-5,2.32,7,7,0,0,1-5.28-2.52l-17.69-20.06a1.5,1.5,0,0,0-1.16-.57c-1.7,0-3.56,2.78-2,4.37l14.52,16a8.55,8.55,0,0,1,.08,11.13,5.87,5.87,0,0,1-4.42,2.08,7,7,0,0,1-5.2-2.6l-16.64-18.54a1.57,1.57,0,0,0-1.33-.84c-1.56,0-3.21,2.61-1.56,4.48L120.13,142a8.32,8.32,0,0,1-.19,10.82,5.57,5.57,0,0,1-4.22,2,6,6,0,0,1-2.64-.64,12.68,12.68,0,0,1-2.33,3.91,10.28,10.28,0,0,0,5,1.35,9.9,9.9,0,0,0,7.43-3.45,13.08,13.08,0,0,0,3.28-8.2,10.74,10.74,0,0,0,5.63,1.67,10.2,10.2,0,0,0,7.64-3.55,12.84,12.84,0,0,0,3.19-8.25,10.8,10.8,0,0,0,13.38-2.46,11.41,11.41,0,0,0,2.7-6.52,4.82,4.82,0,0,0-.44-2.76l-.91.71Z"/><path class="cls-3" d="M43.76,116l.06,0,.07-.06,1-.82c-8.68-8.81-14-15.29-14-15.29C39.29,78.5,48.71,52.62,48.71,52.62c-.07,1.47,4.86,4.09,5.86,4.49a14,14,0,0,0,5.2,1A14.72,14.72,0,0,0,61.26,58c5.2-.52,10.09-3.53,14.69-6.11,3.09-1.74,6.92-3.53,10.55-3.53a8.83,8.83,0,0,1,4.92,1.44q2.08-1.28,4.11-2.43a4.66,4.66,0,0,0-.79-.81,12.88,12.88,0,0,0-8.24-2.82c-4.83,0-9.53,2.33-12.64,4.08l-1.2.68c-3.91,2.22-8,4.52-11.82,4.91-.35,0-.72,0-1.07,0a9.77,9.77,0,0,1-3.63-.67,20.71,20.71,0,0,1-3.4-2,4.44,4.44,0,0,0-3.11-2.66,4.05,4.05,0,0,0-.92-.1,4.41,4.41,0,0,0-4.11,3c-.09.26-9.5,26.06-17.72,47a4.76,4.76,0,0,0,.73,4.76c.22.28,5.48,6.67,14.1,15.45a12,12,0,0,1,2-2.23"/></svg>