<svg id="Camada_1" data-name="Camada 1" xmlns="http://www.w3.org/2000/svg" viewBox="0 0 200 200"><defs><style>.cls-1{fill:#fff;}.cls-2{fill:#18afb4;}</style></defs><path class="cls-1" d="M137.22,139H7.44v25.13H171.89V139H137.22Zm31,21.47H56.67V142.66H168.22Z"/><path class="cls-1" d="M187,132.88v-14c0-14.39-9.91-29.68-28.29-29.68H145.36a2.75,2.75,0,0,1-2.22-4.36,26.26,26.26,0,0,0,5.15-14.66c0-11.28-8.53-19.75-20.47-20.61v-5.5A28.66,28.66,0,0,1,146,51.65a25.33,25.33,0,0,1,7.8,18.51,29.24,29.24,0,0,1-2.54,11.48l-.89,2h8.38c21.15,0,33.78,17.89,33.78,35.18v14Z"/><path class="cls-1" d="M177.57,132.88V122.81c0-8.76-5.54-13.59-15.59-13.59H139.36a17.1,17.1,0,0,1-15.2-8.8,21.62,21.62,0,0,1-2.23-15.1l.34-1.57-1.6-.19a25.55,25.55,0,0,1-14.79-6.67,23.48,23.48,0,0,1-7.4-17,25.42,25.42,0,0,1,5.88-16.41,22.37,22.37,0,0,1,15.77-7.63v5.51C107.39,42.52,104,53.86,104,59.91a17.93,17.93,0,0,0,5.67,13c3.75,3.54,8.9,5.4,14.91,5.4.58,0,1.18,0,1.78-.05h.16a2.74,2.74,0,0,1,2.36,4.14,15.94,15.94,0,0,0,.07,15.32,11.45,11.45,0,0,0,10.43,6H162c6.45,0,11.81,1.78,15.5,5.14s5.58,8.15,5.58,13.94v10.07Z"/><rect class="cls-1" x="187.07" y="138.9" width="5.49" height="25.13"/><rect class="cls-1" x="177.57" y="138.9" width="5.49" height="25.13"/><rect class="cls-2" x="7.44" y="139" width="49.24" height="25.13"/></svg>