<svg id="Camada_1" data-name="Camada 1" xmlns="http://www.w3.org/2000/svg" viewBox="0 0 200 200"><defs><style>.cls-1,.cls-3{fill:none;stroke:#fff;}.cls-1{stroke-linecap:round;stroke-linejoin:round;stroke-width:4.99px;}.cls-2{fill:#18afb4;}.cls-3{stroke-miterlimit:10;stroke-width:3.8px;}</style></defs><path class="cls-1" d="M109.15,112.81q-4.26-1.83-9.15-3.66c-9.8-3.68-6.68-14.08-4.57-18.3,4.57-9.14,13.72-18.29,13.72-41.16,0-18.29-9.15-36.58-32-36.58s-32,18.29-32,36.58c0,22.87,9.15,32,13.72,41.16,2.14,4.28,5.14,15-4.58,18.58C17.68,122.87,8.53,136.59,8.53,136.59v13.72h86.9"/><path class="cls-2" d="M191.47,145.73a41.16,41.16,0,1,1-41.16-41.16,41.16,41.16,0,0,1,41.16,41.16"/><line class="cls-3" x1="150.31" y1="118.29" x2="150.31" y2="154.88"/><line class="cls-3" x1="150.31" y1="164.03" x2="150.31" y2="173.17"/></svg>