<svg id="Camada_1" data-name="Camada 1" xmlns="http://www.w3.org/2000/svg" viewBox="0 0 200 200"><defs><style>.cls-1,.cls-2{fill:none;stroke-width:4.82px;}.cls-1{stroke:#18afb4;stroke-miterlimit:10;}.cls-2{stroke:#fff;stroke-linecap:round;stroke-linejoin:round;}</style></defs><line class="cls-1" x1="147.78" y1="18.51" x2="78.81" y2="18.51"/><line class="cls-1" x1="22.78" y1="74.54" x2="83.12" y2="74.54"/><line class="cls-1" x1="48.64" y1="40.06" x2="40.02" y2="40.06"/><line class="cls-1" x1="31.4" y1="40.06" x2="22.78" y2="40.06"/><path class="cls-2" d="M76.65,53.39l25.67,2.84,11,14.56S98.1,86.64,89.92,95s-4.69,27.2,6.65,39.92l13,13.39L70,173.1m123.47-67.66-37.3-6.24L137.45,59S119.24,40.06,111,40.06H57.26M77.87,181.49l53-20.8c5.85-2.11,8.65-9,5.16-14.14L116.16,117l16.14-16.56s9,12.9,13.72,17.21H178"/><line class="cls-2" x1="21.15" y1="172.88" x2="79.86" y2="140.36"/><line class="cls-2" x1="73.5" y1="117.64" x2="6.49" y2="165.02"/><path class="cls-2" d="M188.94,59.26A15.66,15.66,0,1,1,173.28,43.6,15.66,15.66,0,0,1,188.94,59.26Z"/></svg>