<svg id="Camada_1" data-name="Camada 1" xmlns="http://www.w3.org/2000/svg" viewBox="0 0 200 200"><defs><style>.cls-1,.cls-2,.cls-3,.cls-5,.cls-6{fill:none;}.cls-1,.cls-5,.cls-6{stroke:#fff;}.cls-1,.cls-3,.cls-5,.cls-6{stroke-width:5.57px;}.cls-2{stroke:#18afb4;stroke-miterlimit:10;stroke-width:4.87px;}.cls-3{stroke:#2ecc71;}.cls-4{fill:#3c3c3b;}.cls-5,.cls-6{stroke-linecap:round;stroke-linejoin:round;}.cls-6{stroke-dasharray:0 17.49;}</style></defs><path class="cls-1" d="M178.7,64.55a4.1,4.1,0,0,0-5.18-1.87l-8.29,3.43a17.44,17.44,0,0,1-19.29-3.92c-.42-.43-.84-.86-1.27-1.28a17.48,17.48,0,0,1-3.74-19.12l3.57-8.62A4.09,4.09,0,0,0,142.65,28,89.44,89.44,0,0,0,126,21a4.09,4.09,0,0,0-5,2.33l-3.45,8.33a17.52,17.52,0,0,1-16.4,10.88c-.7,0-1.41,0-2.12,0A17.41,17.41,0,0,1,82.88,31.67L79.37,23.2a4.09,4.09,0,0,0-5-2.33,87.61,87.61,0,0,0-16.68,6.9,4.1,4.1,0,0,0-1.86,5.17l3.51,8.47a17.42,17.42,0,0,1-3.75,19.13c-.51.5-1,1-1.5,1.51A17.48,17.48,0,0,1,34.84,66L26.51,62.5a4.1,4.1,0,0,0-5.19,1.89,90.65,90.65,0,0,0-6.81,16.69,4.11,4.11,0,0,0,2.34,5l8.62,3.56a17.48,17.48,0,0,1,10.88,16.17c0,.6,0,1.2,0,1.8A17.47,17.47,0,0,1,25.49,124l-8.29,3.43a4.11,4.11,0,0,0-2.34,5c.81,2.63,1.74,5.25,2.82,7.84A88.69,88.69,0,0,0,21.89,149a4.09,4.09,0,0,0,5.16,1.85l8.67-3.59A17.48,17.48,0,0,1,54.8,151c.32.33.65.65,1,1a17.54,17.54,0,0,1,4,19.34l-3.45,8.34a4.09,4.09,0,0,0,1.89,5.18,89.28,89.28,0,0,0,16.69,6.81,4.11,4.11,0,0,0,5-2.34l3.56-8.61a17.62,17.62,0,0,1,16.24-10.87h.69a18.2,18.2,0,0,1,16.88,11.24l3.35,8.1a4.1,4.1,0,0,0,5,2.34c2.85-.86,5.7-1.86,8.51-3a87.44,87.44,0,0,0,8.16-3.89,4.09,4.09,0,0,0,1.87-5.17l-3.51-8.47a17.59,17.59,0,0,1,3.85-19.23l.46-.46a18.27,18.27,0,0,1,19.9-3.93l8.19,3.39a4.09,4.09,0,0,0,5.16-1.85,89.48,89.48,0,0,0,7-16.62,4.09,4.09,0,0,0-2.33-5l-8.34-3.46a17.54,17.54,0,0,1-10.87-16.48c0-.45,0-.91,0-1.37a17.46,17.46,0,0,1,10.87-16.1l8.68-3.6a4.1,4.1,0,0,0,2.34-5,92,92,0,0,0-3.23-9.18C181.18,69.5,180,67,178.7,64.55Z"/><path class="cls-2" d="M131.46,74.69a44.53,44.53,0,1,1-63,0A44.54,44.54,0,0,1,131.46,74.69Z"/><polyline class="cls-3" points="116.67 95.04 94.4 117.31 83.27 106.18"/><path class="cls-4" d="M144.5,106.18V43.83H108.87V8.2H64.34a8.91,8.91,0,0,0-8.91,8.91v89.07"/><path class="cls-5" d="M144.5,106.18V43.83H108.87V8.2H64.34a8.91,8.91,0,0,0-8.91,8.91v89.07"/><path class="cls-4" d="M55.43,106.18a44.53,44.53,0,0,0,44.45,44.53h.18a44.53,44.53,0,0,0,44.44-44.53"/><line class="cls-5" x1="55.43" y1="106.18" x2="55.43" y2="106.18"/><path class="cls-6" d="M58.81,123.22a44.55,44.55,0,0,0,41.07,27.49h.18a44.53,44.53,0,0,0,43.59-35.84"/><line class="cls-5" x1="144.5" y1="106.18" x2="144.5" y2="106.18"/><line class="cls-2" x1="73.25" y1="109.51" x2="108.87" y2="109.51"/><line class="cls-2" x1="113.33" y1="109.51" x2="126.69" y2="109.51"/><line class="cls-2" x1="73.25" y1="73.89" x2="108.87" y2="73.89"/><line class="cls-2" x1="113.33" y1="73.89" x2="126.69" y2="73.89"/><line class="cls-2" x1="126.69" y1="91.7" x2="91.06" y2="91.7"/><line class="cls-2" x1="86.61" y1="91.7" x2="73.25" y2="91.7"/></svg>