<svg id="Camada_1" data-name="Camada 1" xmlns="http://www.w3.org/2000/svg" viewBox="0 0 200 200"><defs><style>.cls-1{fill:#fff;fill-rule:evenodd;}.cls-2{fill:none;stroke:#18afb4;stroke-miterlimit:10;stroke-width:1.98px;}</style></defs><path class="cls-1" d="M34,187.18H28.08V82.87H34ZM45.65,12.35a20.38,20.38,0,1,1-14.4,6,20.29,20.29,0,0,1,14.4-6M55.9,22.49a14.47,14.47,0,1,0,4.25,10.24A14.41,14.41,0,0,0,55.9,22.49M26,58.13A15.13,15.13,0,0,0,11,73.21v47.64h5.89V73.21A9.24,9.24,0,0,1,26,64H65.27a9.24,9.24,0,0,1,9.2,9.2v47.64h5.89V73.21A15.13,15.13,0,0,0,65.27,58.13ZM63.23,187.18H57.35V82.87h5.88Z"/><path class="cls-1" d="M148.23,12.35a20.37,20.37,0,1,1-14.42,6,20.32,20.32,0,0,1,14.42-6M128.07,141.73h10.8v45.92H133v-40H121.05l.61-3.45,11-61.39,5.54,2.44Zm29.51,0h10.8l-10-56,5.51-2.59,10.89,61.07.61,3.45H163.47v39.87h-5.89V141.73ZM134.48,58A13.31,13.31,0,0,0,124.77,62a23.4,23.4,0,0,0-5.59,10.59l-11.77,44.53v0l5.76,1.2,11.7-44.27a17.6,17.6,0,0,1,4.07-7.93,7.61,7.61,0,0,1,5.55-2.33h27.4a7.59,7.59,0,0,1,5.54,2.33,17.5,17.5,0,0,1,4.07,7.93l11.77,44.52a1,1,0,0,1,0,.17l5.75-1.22c0-.14-.07-.29-.11-.44L177.17,72.62A23.3,23.3,0,0,0,171.58,62a13.3,13.3,0,0,0-9.7-4.06Zm24-35.49a14.49,14.49,0,1,0,4.25,10.25,14.43,14.43,0,0,0-4.25-10.25"/><line class="cls-2" x1="96.06" y1="25.92" x2="96.06" y2="164.91"/></svg>