<svg id="Camada_1" data-name="Camada 1" xmlns="http://www.w3.org/2000/svg" viewBox="0 0 200 200"><defs><style>.cls-1{fill:#fff;}.cls-2{fill:none;stroke:#fff;stroke-linecap:round;stroke-linejoin:round;stroke-width:5.35px;}.cls-3{fill:#18afb4;}</style></defs><path class="cls-1" d="M112.65,101.1A13.42,13.42,0,1,1,99.23,87.68a13.42,13.42,0,0,1,13.42,13.42"/><path class="cls-2" d="M187.14,98.38a87.91,87.91,0,1,1-87.91-87.9A87.91,87.91,0,0,1,187.14,98.38Z"/><line class="cls-2" x1="99.23" y1="27.77" x2="99.23" y2="43.98"/><line class="cls-2" x1="28.62" y1="98.38" x2="44.84" y2="98.38"/><line class="cls-2" x1="99.23" y1="168.99" x2="99.23" y2="152.77"/><line class="cls-2" x1="169.84" y1="98.37" x2="153.62" y2="98.38"/><line class="cls-2" x1="63.93" y1="37.23" x2="68.02" y2="44.32"/><line class="cls-2" x1="38.08" y1="63.07" x2="45.17" y2="67.17"/><line class="cls-2" x1="45.18" y1="129.59" x2="38.08" y2="133.68"/><line class="cls-2" x1="68.02" y1="152.44" x2="63.93" y2="159.53"/><line class="cls-2" x1="130.44" y1="152.43" x2="134.54" y2="159.52"/><line class="cls-2" x1="153.29" y1="129.59" x2="160.38" y2="133.68"/><line class="cls-2" x1="160.38" y1="63.07" x2="153.29" y2="67.17"/><line class="cls-2" x1="130.44" y1="44.32" x2="134.54" y2="37.23"/><line class="cls-2" x1="69.48" y1="68.62" x2="107.6" y2="106.74"/><line class="cls-2" x1="142.31" y1="57.19" x2="89.82" y2="107.37"/><path class="cls-3" d="M92.65,110.06v79.06q4.21.4,8.53.4a87.9,87.9,0,0,0,87.49-79.46Z"/><path class="cls-1" d="M128.44,174.9c-4.5,0-7.53-3-7.53-6.8s3-6.94,7.53-6.94,7.46,3,7.46,6.94-3,6.8-7.46,6.8m-7-54.28h13.66L133.61,156H122.9Z"/></svg>