<svg id="Camada_1" data-name="Camada 1" xmlns="http://www.w3.org/2000/svg" viewBox="0 0 200 200"><defs><style>.cls-1{fill:#fff;}</style></defs><path class="cls-1" d="M100,110.4c19.77,0,35.86-16.52,35.86-36.82S119.77,36.76,100,36.76,64.14,53.28,64.14,73.58,80.23,110.4,100,110.4m0-66.85c16,0,29.08,13.47,29.08,30s-13,30-29.08,30-29.07-13.47-29.07-30,13-30,29.07-30"/><path class="cls-1" d="M167.19,32.48A95,95,0,0,0,32.81,166.86,95,95,0,0,0,167.19,32.48M100,11.43a88.18,88.18,0,0,1,68.36,144,36.55,36.55,0,0,0-14.63-23.46c-9-6.68-21.62-10.35-35.58-10.35H81.86c-14,0-26.6,3.67-35.58,10.35a36.47,36.47,0,0,0-14.63,23.46A88.18,88.18,0,0,1,100,11.43m0,176.47a88,88,0,0,1-62.2-25.71c.39-24.95,23.9-33.83,44.06-33.83h36.29c20.16,0,43.66,8.88,44.06,33.83A88,88,0,0,1,100,187.9"/></svg>